<?xml version="1.0" encoding="utf-8"?>
<svg version="1.1" xmlns:xlink="http://www.w3.org/1999/xlink" width="48px" height="43px" xmlns="http://www.w3.org/2000/svg">
  <g transform="matrix(1 0 0 1 -600 -12 )">
    <path d="M 28.046875 34.3830486202365  C 30.078125 36.7185720543145  32.53125 38.7056504599212  35.40625 40.3442838370565  C 31.84375 42.1147612790188  28.0104166666666 43  23.90625 43  C 19.8229166666666 43  16 42.1147612790188  12.4375 40.3442838370565  C 15.3125 38.7056504599212  17.765625 36.7185720543145  19.796875 34.3830486202365  C 21.828125 32.0475251861586  23.1979166666666 29.5236530880421  23.90625 26.811432325887  C 24.6354166666666 29.5236530880421  26.015625 32.0475251861586  28.046875 34.3830486202365  Z M 9.78125 3.87056504599212  C 12.8229166666666 1.85523434077967  16.2083333333334 0.565045992115637  20 0  L 20 13.7023653088042  C 19.9375 18.4487516425756  18.6197916666666 22.7760621988611  15.984375 26.684296977661  C 13.3489583333334 30.5925317564608  9.90625 33.4789750328515  5.65625 35.3436268068331  C 1.88541666666663 31.2941305300044  0 26.6325010950504  0 21.3587385019711  C 0 17.8366184844503  0.869791666666629 14.5452255803767  2.609375 11.4845597897503  C 4.34895833333337 8.42389399912395  6.73958333333337 5.88589575120455  9.78125 3.87056504599212  Z M 45.390625 11.4845597897503  C 47.1302083333334 14.5452255803767  48 17.8366184844503  48 21.3587385019711  C 48 26.6325010950504  46.1145833333334 31.2941305300044  42.34375 35.3436268068331  C 38.09375 33.4789750328515  34.6510416666666 30.5925317564608  32.015625 26.684296977661  C 29.3802083333334 22.7760621988611  28.0625 18.4487516425756  28 13.7023653088042  L 28 0  C 31.7916666666666 0.565045992115637  35.1770833333334 1.85523434077967  38.21875 3.87056504599212  C 41.2604166666666 5.88589575120455  43.6510416666666 8.42389399912395  45.390625 11.4845597897503  Z " fill-rule="nonzero" fill="#000000" stroke="none" transform="matrix(1 0 0 1 600 12 )" />
  </g>
</svg>