<?xml version="1.0" encoding="utf-8"?>
<svg version="1.1" xmlns:xlink="http://www.w3.org/1999/xlink" width="86px" height="25px" xmlns="http://www.w3.org/2000/svg">
  <defs>
    <mask fill="white" id="clip5">
      <path d="M 0 20  L 0 5  C 0 2.20000000000005  2.20000000000005 0  5 0  L 45 0  L 81 0  C 83.8 0  86 2.20000000000005  86 5  L 86 20  C 86 22.8  83.8 25  81 25  L 5 25  C 2.20000000000005 25  0 22.8  0 20  Z " fill-rule="evenodd" />
    </mask>
  </defs>
  <g transform="matrix(1 0 0 1 -373 -175 )">
    <path d="M 0 20  L 0 5  C 0 2.20000000000005  2.20000000000005 0  5 0  L 45 0  L 81 0  C 83.8 0  86 2.20000000000005  86 5  L 86 20  C 86 22.8  83.8 25  81 25  L 5 25  C 2.20000000000005 25  0 22.8  0 20  Z " fill-rule="nonzero" fill="#ffffff" stroke="none" transform="matrix(1 0 0 1 373 175 )" />
    <path d="M 0 20  L 0 5  C 0 2.20000000000005  2.20000000000005 0  5 0  L 45 0  L 81 0  C 83.8 0  86 2.20000000000005  86 5  L 86 20  C 86 22.8  83.8 25  81 25  L 5 25  C 2.20000000000005 25  0 22.8  0 20  Z " stroke-width="2" stroke="#797979" fill="none" transform="matrix(1 0 0 1 373 175 )" mask="url(#clip5)" />
  </g>
</svg>