<?xml version="1.0" encoding="utf-8"?>
<svg version="1.1" xmlns:xlink="http://www.w3.org/1999/xlink" width="49px" height="49px" xmlns="http://www.w3.org/2000/svg">
  <g transform="matrix(1 0 0 1 -623 -13 )">
    <path d="M 28.6311848958334 39.1806833114323  C 30.7047526041666 41.8420937363119  33.208984375 44.1064388961892  36.1438802083334 45.9737187910644  C 32.5071614583334 47.9912395970215  28.5939670138889 49  24.404296875 49  C 20.2358940972222 49  16.3333333333334 47.9912395970215  12.6966145833334 45.9737187910644  C 15.6315104166666 44.1064388961892  18.1357421875 41.8420937363119  20.2093098958334 39.1806833114323  C 22.2828776041666 36.5192728865528  23.6812065972222 33.6432325886991  24.404296875 30.5525624178712  C 25.1486545138889 33.6432325886991  26.5576171875 36.5192728865528  28.6311848958334 39.1806833114323  Z M 9.98502604166663 4.41064388961892  C 13.0900607638889 2.11410424879544  16.5460069444445 0.64388961892247  21 0  L 21 15.6143232588699  C 20.3528645833334 21.0229960578187  19.0077039930555 25.9541173893999  16.3173828125 30.4076872536137  C 13.6270616319445 34.8612571178274  10.1126302083334 38.1504599211564  5.77408854166663 40.2752956636005  C 1.92469618055554 35.6607533946561  0 30.3486640385458  0 24.3390275952694  C 0 20.3254489706526  0.887912326388914 16.5747919404293  2.66373697916663 13.0870565045992  C 4.43956163194446 9.59932106876916  6.87999131944446 6.7071835304424  9.98502604166663 4.41064388961892  Z M 46.3362630208334 13.0870565045992  C 48.1120876736111 16.5747919404293  49 20.3254489706526  49 24.3390275952694  C 49 30.3486640385458  47.0753038194445 35.6607533946561  43.2259114583334 40.2752956636005  C 38.8873697916666 38.1504599211564  35.3729383680555 34.8612571178274  32.6826171875 30.4076872536137  C 29.9922960069445 25.9541173893999  28.6471354166666 21.0229960578187  28 15.6143232588699  L 28 0  C 32.4539930555555 0.64388961892247  35.9099392361111 2.11410424879544  39.0149739583334 4.41064388961892  C 42.1200086805555 6.7071835304424  44.5604383680555 9.59932106876916  46.3362630208334 13.0870565045992  Z " fill-rule="nonzero" fill="#000000" stroke="none" transform="matrix(1 0 0 1 623 13 )" />
  </g>
</svg>